<svg width="40" height="40" viewBox="0 0 40 40" fill="none" xmlns="http://www.w3.org/2000/svg">
<circle cx="20" cy="20" r="20" fill="#3A83EB"/>
<path d="M22.1666 9.16667H13.5C12.9253 9.16667 12.3742 9.39494 11.9679 9.80127C11.5616 10.2076 11.3333 10.7587 11.3333 11.3333V28.6667C11.3333 29.2413 11.5616 29.7924 11.9679 30.1987C12.3742 30.6051 12.9253 30.8333 13.5 30.8333H26.5C27.0746 30.8333 27.6257 30.6051 28.032 30.1987C28.4384 29.7924 28.6666 29.2413 28.6666 28.6667V15.6667L22.1666 9.16667Z" fill="white"/>
<path d="M22.1666 9.16667V15.6667H28.6666" fill="white"/>
<path d="M17.8333 16.75H15.6666H17.8333Z" fill="white"/>
<path d="M28.6666 15.6667L22.1666 9.16667H13.5C12.9253 9.16667 12.3742 9.39494 11.9679 9.80127C11.5616 10.2076 11.3333 10.7587 11.3333 11.3333V28.6667C11.3333 29.2413 11.5616 29.7924 11.9679 30.1987C12.3742 30.6051 12.9253 30.8333 13.5 30.8333H26.5C27.0746 30.8333 27.6257 30.6051 28.032 30.1987C28.4384 29.7924 28.6666 29.2413 28.6666 28.6667V15.6667ZM22.1666 9.16667V15.6667H28.6666M24.3333 21.0833H15.6666M24.3333 25.4167H15.6666M17.8333 16.75H15.6666" stroke="#3A83EB" stroke-width="2" stroke-linecap="round" stroke-linejoin="round"/>
</svg>
