<svg width="29" height="29" viewBox="0 0 29 29" fill="none" xmlns="http://www.w3.org/2000/svg">
<path d="M6.00781 15.3313C6.00781 13.6999 6.00781 12.8842 6.33759 12.1672C6.66737 11.4502 7.2867 10.9193 8.52536 9.8576L9.72691 8.8277C11.9658 6.90867 13.0852 5.94916 14.4187 5.94916C15.7521 5.94916 16.8715 6.90867 19.1104 8.8277L20.312 9.8576C21.5506 10.9193 22.17 11.4502 22.4997 12.1672C22.8295 12.8842 22.8295 13.6999 22.8295 15.3313V20.4264C22.8295 22.692 22.8295 23.8249 22.1257 24.5287C21.4218 25.2326 20.289 25.2326 18.0233 25.2326H10.814C8.54835 25.2326 7.41552 25.2326 6.71166 24.5287C6.00781 23.8249 6.00781 22.692 6.00781 20.4264V15.3313Z" stroke="#FF5A36" stroke-width="2.4031"/>
<path d="M17.4224 25.2326V19.2248C17.4224 18.5612 16.8845 18.0233 16.2209 18.0233H12.6162C11.9526 18.0233 11.4147 18.5612 11.4147 19.2248V25.2326" stroke="#FF5A36" stroke-width="2.4031" stroke-linecap="round" stroke-linejoin="round"/>
</svg>
