<svg width="16" height="16" viewBox="0 0 16 16" fill="none" xmlns="http://www.w3.org/2000/svg">
    <path d="M8.00004 14.6667C7.08893 14.6667 6.22782 14.4917 5.41671 14.1417C4.6056 13.7917 3.89726 13.3139 3.29171 12.7083C2.68615 12.1028 2.20837 11.3944 1.85837 10.5833C1.50837 9.77222 1.33337 8.91111 1.33337 8C1.33337 7.07778 1.50837 6.21389 1.85837 5.40833C2.20837 4.60278 2.68615 3.89722 3.29171 3.29167C3.89726 2.68611 4.6056 2.20833 5.41671 1.85833C6.22782 1.50833 7.08893 1.33333 8.00004 1.33333C8.92226 1.33333 9.78615 1.50833 10.5917 1.85833C11.3973 2.20833 12.1028 2.68611 12.7084 3.29167C13.3139 3.89722 13.7917 4.60278 14.1417 5.40833C14.4917 6.21389 14.6667 7.07778 14.6667 8C14.6667 8.91111 14.4917 9.77222 14.1417 10.5833C13.7917 11.3944 13.3139 12.1028 12.7084 12.7083C12.1028 13.3139 11.3973 13.7917 10.5917 14.1417C9.78615 14.4917 8.92226 14.6667 8.00004 14.6667ZM8.00004 13.3C8.28893 12.9 8.53893 12.4833 8.75004 12.05C8.96115 11.6167 9.13337 11.1556 9.26671 10.6667H6.73337C6.86671 11.1556 7.03893 11.6167 7.25004 12.05C7.46115 12.4833 7.71115 12.9 8.00004 13.3ZM6.26671 13.0333C6.06671 12.6667 5.89171 12.2861 5.74171 11.8917C5.59171 11.4972 5.46671 11.0889 5.36671 10.6667H3.40004C3.72226 11.2222 4.12504 11.7056 4.60837 12.1167C5.09171 12.5278 5.64448 12.8333 6.26671 13.0333ZM9.73337 13.0333C10.3556 12.8333 10.9084 12.5278 11.3917 12.1167C11.875 11.7056 12.2778 11.2222 12.6 10.6667H10.6334C10.5334 11.0889 10.4084 11.4972 10.2584 11.8917C10.1084 12.2861 9.93337 12.6667 9.73337 13.0333ZM2.83337 9.33333H5.10004C5.06671 9.11111 5.04171 8.89167 5.02504 8.675C5.00837 8.45833 5.00004 8.23333 5.00004 8C5.00004 7.76667 5.00837 7.54167 5.02504 7.325C5.04171 7.10833 5.06671 6.88889 5.10004 6.66667H2.83337C2.77782 6.88889 2.73615 7.10833 2.70837 7.325C2.6806 7.54167 2.66671 7.76667 2.66671 8C2.66671 8.23333 2.6806 8.45833 2.70837 8.675C2.73615 8.89167 2.77782 9.11111 2.83337 9.33333ZM6.43337 9.33333H9.56671C9.60004 9.11111 9.62504 8.89167 9.64171 8.675C9.65837 8.45833 9.66671 8.23333 9.66671 8C9.66671 7.76667 9.65837 7.54167 9.64171 7.325C9.62504 7.10833 9.60004 6.88889 9.56671 6.66667H6.43337C6.40004 6.88889 6.37504 7.10833 6.35837 7.325C6.34171 7.54167 6.33337 7.76667 6.33337 8C6.33337 8.23333 6.34171 8.45833 6.35837 8.675C6.37504 8.89167 6.40004 9.11111 6.43337 9.33333ZM10.9 9.33333H13.1667C13.2223 9.11111 13.2639 8.89167 13.2917 8.675C13.3195 8.45833 13.3334 8.23333 13.3334 8C13.3334 7.76667 13.3195 7.54167 13.2917 7.325C13.2639 7.10833 13.2223 6.88889 13.1667 6.66667H10.9C10.9334 6.88889 10.9584 7.10833 10.975 7.325C10.9917 7.54167 11 7.76667 11 8C11 8.23333 10.9917 8.45833 10.975 8.675C10.9584 8.89167 10.9334 9.11111 10.9 9.33333ZM10.6334 5.33333H12.6C12.2778 4.77778 11.875 4.29445 11.3917 3.88333C10.9084 3.47222 10.3556 3.16667 9.73337 2.96667C9.93337 3.33333 10.1084 3.71389 10.2584 4.10833C10.4084 4.50278 10.5334 4.91111 10.6334 5.33333ZM6.73337 5.33333H9.26671C9.13337 4.84444 8.96115 4.38333 8.75004 3.95C8.53893 3.51667 8.28893 3.1 8.00004 2.7C7.71115 3.1 7.46115 3.51667 7.25004 3.95C7.03893 4.38333 6.86671 4.84444 6.73337 5.33333ZM3.40004 5.33333H5.36671C5.46671 4.91111 5.59171 4.50278 5.74171 4.10833C5.89171 3.71389 6.06671 3.33333 6.26671 2.96667C5.64448 3.16667 5.09171 3.47222 4.60837 3.88333C4.12504 4.29445 3.72226 4.77778 3.40004 5.33333Z"
          fill="#1D1B20"/>
</svg>
