<svg width="35" height="35" viewBox="0 0 35 35" fill="none" xmlns="http://www.w3.org/2000/svg">
    <circle cx="17.5" cy="17.5" r="17.5" fill="#FFCDCD"/>
    <path d="M25.235 11.9087C24.7881 11.4616 24.2574 11.1069 23.6734 10.8649C23.0894 10.623 22.4634 10.4984 21.8312 10.4984C21.1991 10.4984 20.5731 10.623 19.989 10.8649C19.405 11.1069 18.8744 11.4616 18.4275 11.9087L17.5 12.8362L16.5725 11.9087C15.6698 11.006 14.4454 10.4989 13.1687 10.4989C11.8921 10.4989 10.6677 11.006 9.76498 11.9087C8.86225 12.8115 8.3551 14.0358 8.3551 15.3125C8.3551 16.5892 8.86225 17.8135 9.76498 18.7162L17.5 26.4512L25.235 18.7162C25.6821 18.2693 26.0368 17.7387 26.2788 17.1547C26.5208 16.5707 26.6453 15.9447 26.6453 15.3125C26.6453 14.6803 26.5208 14.0543 26.2788 13.4703C26.0368 12.8863 25.6821 12.3557 25.235 11.9087Z"
          fill="#EC221F"/>
</svg>
