<svg xmlns="http://www.w3.org/2000/svg" viewBox="0 0 360 230">
    <rect width="360" height="230" fill="#fff"/>
    <g stroke="#FF5A36" stroke-width="3" stroke-linecap="round" stroke-linejoin="round">
        <path d="M79 180c-16-4-28-20-28-39 0-25 19-44 42-44 15 0 28 8 35 21" fill="#F04D36"/>
        <path d="M92 105c20 2 33 17 33 38v45H76v-47c0-20 6-32 16-36z" fill="#FFC31A"/>
        <path d="M89 108c-10-4-15-15-11-26 4-10 15-16 25-12 7 2 12 8 13 15-8-1-15 2-21 8" fill="#fff"/>
        <path d="M110 129c9 10 17 22 23 36M109 171l43 8" fill="none"/>
        <path d="M281 180c17-4 28-20 28-39 0-25-18-44-42-44-15 0-28 8-35 21" fill="#F04D36"/>
        <path d="M268 105c-20 2-33 17-33 38v45h49v-47c0-20-5-32-16-36z" fill="#FFC31A"/>
        <path d="M271 108c10-4 15-15 11-26-4-10-15-16-25-12-7 2-12 8-13 15 8-1 15 2 21 8" fill="#fff"/>
        <path d="M250 129c-9 10-17 22-23 36M251 171l-43 8" fill="none"/>
        <path d="M128 123h104v72H128z" fill="#fff"/>
        <path d="M139 134h82v50h-82zM164 195h32M180 184v11" fill="none"/>
        <path d="M180 27c-17 20-22 42-16 67h32c6-25 1-47-16-67z" fill="#FFC31A"/>
        <path d="M164 79l-13 15v18l17-9M196 79l13 15v18l-17-9" fill="#fff"/>
        <circle cx="180" cy="58" r="8" fill="#fff"/>
        <path d="M174 96l6 18 6-18" fill="#F04D36"/>
    </g>
    <path d="M124 205h112" stroke="#343434" stroke-width="3" stroke-linecap="round"/>
</svg>
