<svg width="20" height="20" viewBox="0 0 20 20" fill="none" xmlns="http://www.w3.org/2000/svg">
<path d="M9.99998 16.6667C9.54165 16.6667 9.14929 16.5035 8.8229 16.1771C8.49651 15.8507 8.33331 15.4583 8.33331 15C8.33331 14.5417 8.49651 14.1493 8.8229 13.8229C9.14929 13.4965 9.54165 13.3333 9.99998 13.3333C10.4583 13.3333 10.8507 13.4965 11.1771 13.8229C11.5035 14.1493 11.6666 14.5417 11.6666 15C11.6666 15.4583 11.5035 15.8507 11.1771 16.1771C10.8507 16.5035 10.4583 16.6667 9.99998 16.6667ZM9.99998 11.6667C9.54165 11.6667 9.14929 11.5035 8.8229 11.1771C8.49651 10.8507 8.33331 10.4583 8.33331 10C8.33331 9.54167 8.49651 9.1493 8.8229 8.82292C9.14929 8.49653 9.54165 8.33333 9.99998 8.33333C10.4583 8.33333 10.8507 8.49653 11.1771 8.82292C11.5035 9.1493 11.6666 9.54167 11.6666 10C11.6666 10.4583 11.5035 10.8507 11.1771 11.1771C10.8507 11.5035 10.4583 11.6667 9.99998 11.6667ZM9.99998 6.66667C9.54165 6.66667 9.14929 6.50347 8.8229 6.17708C8.49651 5.85069 8.33331 5.45833 8.33331 5C8.33331 4.54167 8.49651 4.1493 8.8229 3.82292C9.14929 3.49653 9.54165 3.33333 9.99998 3.33333C10.4583 3.33333 10.8507 3.49653 11.1771 3.82292C11.5035 4.1493 11.6666 4.54167 11.6666 5C11.6666 5.45833 11.5035 5.85069 11.1771 6.17708C10.8507 6.50347 10.4583 6.66667 9.99998 6.66667Z" fill="#1D1B20"/>
</svg>
