<svg width="16" height="16" viewBox="0 0 16 16" fill="none" xmlns="http://www.w3.org/2000/svg">
    <path d="M2.66663 12.6667V11.3333H3.99996V6.66667C3.99996 5.74445 4.27774 4.92778 4.83329 4.21667C5.38885 3.49445 6.11107 3.02222 6.99996 2.8V2.33334C6.99996 2.05556 7.0944 1.82222 7.28329 1.63334C7.48329 1.43334 7.72218 1.33334 7.99996 1.33334C8.27774 1.33334 8.51107 1.43334 8.69996 1.63334C8.89996 1.82222 8.99996 2.05556 8.99996 2.33334V2.8C9.88885 3.02222 10.6111 3.49445 11.1666 4.21667C11.7222 4.92778 12 5.74445 12 6.66667V11.3333H13.3333V12.6667H2.66663ZM7.99996 14.6667C7.63329 14.6667 7.31663 14.5389 7.04996 14.2833C6.7944 14.0167 6.66663 13.7 6.66663 13.3333H9.33329C9.33329 13.7 9.19996 14.0167 8.93329 14.2833C8.67774 14.5389 8.36663 14.6667 7.99996 14.6667ZM5.33329 11.3333H10.6666V6.66667C10.6666 5.93333 10.4055 5.30556 9.88329 4.78334C9.36107 4.26111 8.73329 4 7.99996 4C7.26663 4 6.63885 4.26111 6.11663 4.78334C5.5944 5.30556 5.33329 5.93333 5.33329 6.66667V11.3333Z"
          fill="#1D1B20"/>
</svg>
