<svg width="29" height="29" viewBox="0 0 29 29" fill="none" xmlns="http://www.w3.org/2000/svg">
    <path d="M12.1882 7.96337C13.1334 5.60714 13.6059 4.42902 14.4186 4.42902C15.2312 4.42902 15.7038 5.60714 16.6489 7.96338L16.6929 8.0731C17.2269 9.40425 17.4939 10.0698 18.038 10.4744C18.5821 10.8789 19.2964 10.9429 20.7249 11.0708L20.9832 11.094C23.3212 11.3034 24.4902 11.408 24.7403 12.1518C24.9905 12.8955 24.1223 13.6854 22.386 15.265L21.8065 15.7922C20.9276 16.5919 20.4881 16.9917 20.2833 17.5157C20.2451 17.6135 20.2133 17.7136 20.1882 17.8155C20.0536 18.3618 20.1823 18.9419 20.4396 20.1019L20.5198 20.463C20.9928 22.595 21.2293 23.661 20.8163 24.1207C20.662 24.2926 20.4615 24.4163 20.2387 24.477C19.6425 24.6397 18.796 23.95 17.1031 22.5705C15.9914 21.6647 15.4356 21.2118 14.7975 21.1099C14.5465 21.0698 14.2907 21.0698 14.0397 21.1099C13.4015 21.2118 12.8457 21.6647 11.7341 22.5705C10.0411 23.95 9.19467 24.6397 8.59846 24.477C8.37567 24.4163 8.17512 24.2926 8.02082 24.1207C7.60787 23.661 7.84438 22.595 8.3174 20.463L8.39751 20.1019C8.6549 18.9419 8.78359 18.3618 8.64895 17.8155C8.62383 17.7136 8.59207 17.6135 8.55386 17.5157C8.34902 16.9917 7.90955 16.5919 7.03061 15.7922L6.45113 15.265C4.71483 13.6854 3.84669 12.8955 4.09682 12.1518C4.34696 11.408 5.51596 11.3034 7.85395 11.094L8.11221 11.0708C9.54075 10.9429 10.255 10.8789 10.7991 10.4744C11.3433 10.0698 11.6102 9.40425 12.1442 8.07309L12.1882 7.96337Z"
          stroke="#FF5A36" stroke-width="2.4031"/>
</svg>
